<svg width="184" height="65" viewBox="0 0 184 65" fill="none" xmlns="http://www.w3.org/2000/svg">
<path d="M24.5336 50.4194C19.476 50.4194 15.7952 46.2294 15.7952 40.3942C15.7952 34.5563 19.476 30.7506 24.5336 30.7506C29.5273 30.7506 33.2733 34.5563 33.2733 40.3942C33.2733 46.2294 29.5273 50.4194 24.5336 50.4194ZM24.5336 16.9176C10.551 16.9176 0 25.9909 0 40.3942C0 54.7962 10.551 64.3781 24.5336 64.3781C38.5183 64.3781 49.1283 54.7962 49.1283 40.3942C49.1283 25.9909 38.5183 16.9176 24.5336 16.9176Z" fill="white"/>
<path d="M71.6445 50.1649H68.8374V31.0032H72.219C78.5964 31.0032 82.7411 34.4918 82.7411 40.2653C82.7411 47.2453 78.724 50.1649 71.6445 50.1649ZM71.0694 18.1853H54.233V63.1071H72.3453C85.739 63.1071 98.1122 56.1916 98.1122 40.3943C98.1122 23.1976 85.2936 18.1853 71.0694 18.1853Z" fill="white"/>
<path d="M99.0278 57.7896L107.164 47.3203C109.809 49.3875 115.138 51.6744 119.054 51.6744C120.524 51.6744 122.249 51.4341 122.359 49.8487C122.476 48.2022 120.945 47.6971 114.193 45.6031C107.711 43.5722 101.84 40.2037 101.84 32.3349C101.84 21.1683 112.507 16.9172 121.889 16.9172C128.167 16.9172 134.645 19.3289 139.709 23.5787L131.419 33.6431C128.418 30.8833 124.524 29.3892 122.025 29.3892C119.663 29.3892 118.119 29.9554 118.119 31.2018C118.119 32.5353 119.391 32.9615 122.697 33.9773C129.585 36.072 138.832 39.1941 138.832 48.4596C138.832 59.8445 129.233 64.3784 119.661 64.3784C111.968 64.3784 104.024 61.8485 99.0278 57.7896Z" fill="white"/>
<path d="M157.678 5.96083C154.382 2.99107 143.3 -1.9512 131.419 0.810596C142.39 2.68703 152.32 8.89009 157.678 16.9174C163.035 8.89009 172.965 2.68703 183.937 0.810596C172.055 -1.9512 160.973 2.99107 157.678 5.96083Z" fill="white"/>
</svg>
